PathFileType	4	(X/Y/Z)	Patient4_TMGait_0pt5_01_left_15.trc.trc
DataRate	CameraRate	NumFrames	NumMarkers	Units	OrigDataRate	OrigDataStartFrame	OrigNumFrames
74.468085106383	74.468085106383	4	33	mm	74.468085106383	18	       141
Frame#	Time	L.ASIS			Sacral			L.Shoulder			Chest			R.Shoulder			Neck			R.ASIS			R.Thigh.Superior			R.Thigh.Lateral			R.Thigh.Inferior			R.Patella			L.Thigh.Superior			L.Thigh.Lateral			L.Thigh.Inferior			L.Patella			L.Shank.Superior			L.Shank.Lateral			L.Shank.Inferior			R.Shank.Superior			R.Shank.Lateral			R.Shank.Inferior			R.Heel			R.Midfoot.Superior			R.Midfoot.Lateral			R.Toe			L.Heel			L.Midfoot.Lateral			L.Midfoot.Superior			L.Toe			L.Elbow			L.Wrist			R.Elbow			R.Wrist			
		X1	Y1	Z1	X2	Y2	Z2	X3	Y3	Z3	X4	Y4	Z4	X5	Y5	Z5	X6	Y6	Z6	X7	Y7	Z7	X8	Y8	Z8	X9	Y9	Z9	X10	Y10	Z10	X11	Y11	Z11	X12	Y12	Z12	X13	Y13	Z13	X14	Y14	Z14	X15	Y15	Z15	X16	Y16	Z16	X17	Y17	Z17	X18	Y18	Z18	X19	Y19	Z19	X20	Y20	Z20	X21	Y21	Z21	X22	Y22	Z22	X23	Y23	Z23	X24	Y24	Z24	X25	Y25	Z25	X26	Y26	Z26	X27	Y27	Z27	X28	Y28	Z28	X29	Y29	Z29	X30	Y30	Z30	X31	Y31	Z31	X32	Y32	Z32	X33	Y33	Z33	

18	20.278285714286	800.425474500433	961.357787033097	353.208344593462	602.657283249235	1008.317898492879	530.571122426789	769.600942372979	1441.125963436314	352.462352648075	886.378759976761	1360.258864111014	497.687131594655	824.487603434409	1427.518672063942	683.640524676837	788.523033974525	1493.895457787399	505.701788906985	835.897922812032	938.359936684236	625.774508389219	846.834952463379	730.274226679290	595.426894922487	753.833188196782	629.943988329342	657.250894478685	817.882467302223	570.071448736941	574.481629097991	804.957787171045	482.821037579806	578.359729771741	874.502099485775	775.455173441673	382.167966988010	828.365102829360	650.350942778141	303.046358152327	927.961545637520	588.684161163301	368.212218617211	956.855263104395	524.979734748974	363.064630902746	942.542538093989	454.530892909212	351.474370896971	881.515298010927	322.867484672394	298.511439779864	971.273057109187	226.449295564133	354.609018254326	769.539827418464	396.539575589615	583.314730907523	689.074077309019	298.880594911326	642.418879639685	720.595860163614	202.278296284818	577.219956058093	571.799930639991	44.007142909666	543.359555007323	744.280167471007	96.466804354098	579.978374439492	654.764174208237	36.650514759750	618.394565230735	863.197699378157	40.236101000292	608.839261542932	893.511309005498	42.211948831370	392.005046593310	968.843845336101	49.554199517093	313.528542676300	1035.255242333480	130.849130921212	333.710032090306	1170.510665173107	108.107010288497	311.963692330949	633.375044007872	1113.330951874089	246.857947998631	607.059798585286	854.039602931190	247.813083726851	927.423504590989	1104.108193191542	797.539830077539	1171.398089094267	1135.132884108167	739.622233888443	
19	20.291714285714	800.630290089943	960.311188445929	351.930493394266	603.104412815287	1006.878365122816	529.519703319473	767.617462863734	1440.255382823844	350.871401250172	884.940659249537	1359.947127093967	495.949026581460	822.957348800239	1426.907570842185	681.980951188793	786.499694202626	1493.104487894840	504.094597180918	836.395553914511	937.794948262508	624.571365969969	845.784932505121	729.170454807449	594.306028919448	751.823824836735	629.388909164353	656.385317738455	815.095580507804	568.937496872804	573.654987715376	801.248591252503	481.649682115038	577.361957436098	875.107718115639	774.072500975098	380.526560028721	826.956053814994	648.031527661225	303.255591758766	927.488807270466	586.880597854360	367.021107735221	955.883441875616	522.993854374295	362.588311153513	941.334863527937	452.295825592320	351.700115001225	879.231412408008	320.732942985914	300.223862682287	968.962912805024	224.283969410189	356.033546416819	765.184168794251	395.627208283889	582.589932300395	684.148261450238	298.614868167844	642.162765562141	714.649591831015	201.737482528618	576.868273829012	564.944962728815	43.863711571271	543.400349270578	737.391239038965	96.396553113412	579.932448030330	647.892709151069	36.556178003550	618.450807617316	856.331818752291	40.333571600298	608.851299074744	890.119895396548	41.998980225792	395.240040658677	964.752812389076	47.735885872334	316.050282453491	1032.722852798771	127.568457993688	335.382777568949	1167.129336870763	102.231810609186	312.532091924031	631.417874369663	1112.466665770776	245.974416723578	605.413472158817	853.068012481697	247.475732521094	929.646211757958	1104.078161050001	793.487625484600	1171.538765331799	1141.409400238283	731.704627281493	
20	20.305142857143	801.163216294407	959.164519139042	350.593555562371	603.743460899707	1005.309200494126	528.289783381798	765.562747938721	1439.244050170266	349.072611364834	883.483995791909	1359.645179438481	494.046921087886	821.311785680350	1426.290521177762	680.144093197382	784.338858982631	1492.242328610836	502.268375847322	837.097002998367	937.157183397851	623.288696890170	844.915690674710	727.973362525046	593.100890952754	749.980981970259	628.776558939227	655.457458138433	812.454930217386	567.732270311160	572.747245393552	797.639318057549	480.408137542270	576.272614889605	876.186233633299	772.590344132259	378.771221151781	825.839999419825	645.575591135011	303.538490204920	927.370704176818	584.978308503803	365.833360953118	955.093132955225	520.627606779597	362.179778200086	939.976345518570	449.552884440092	352.062304045111	876.072152924826	318.473890986611	301.981883000558	965.098078340658	221.460858532836	357.612473029646	760.932432518687	394.672729604887	581.805252579633	679.317815957809	298.333216126160	641.881022138762	708.742288846646	201.170798123573	576.487392764296	558.102772221188	43.720562287932	543.444695126153	730.506506450098	96.319588213092	579.882137284236	641.031804820086	36.452780038024	618.500490622295	849.477792753782	40.408719380910	608.863500404691	883.987959807315	41.670253157995	398.312045001153	958.037117868362	45.644461325807	318.486463590937	1028.025197350145	123.464953660631	337.355349175841	1161.458684603966	94.763538382773	313.416590018461	629.909335458892	1111.227213470979	244.789332647666	604.884032088703	851.651566526048	246.675862227253	931.461201365042	1104.000459724883	789.489479047970	1171.265187771282	1146.797699406677	724.008639125884	
21	20.318571428571	801.982238183676	957.942498452370	349.194008662926	604.534937437265	1003.652003463698	526.876986709304	763.475848910093	1438.102250274289	347.069160361412	882.041775923233	1359.348193985232	491.980836161905	819.596978134487	1425.676396216828	678.129543131776	782.096862360634	1491.321822587371	500.218938515669	837.974916557747	936.442406903080	621.911502838764	844.250830214922	726.689213823300	591.819980970739	748.335053826975	628.103084076420	654.453480092901	810.006843682187	566.461595344138	571.746648589519	794.184398543882	479.095352290095	575.085032412561	877.601073748370	770.992847375421	376.968581079203	825.015635546745	643.071644850684	303.821023302527	927.515298602306	583.014852977994	364.717499353002	954.405245900234	517.974340026822	361.900718843188	938.504746467120	446.443909717623	352.543101098108	872.338110453388	316.131924170109	303.667530718094	960.103213521982	218.158702492150	359.290065531401	756.823916996957	393.675302476123	580.948700613646	674.613112417113	298.048061291373	641.563975622134	702.895288480913	200.586357780713	576.075905438263	551.280589258584	43.600578351156	543.495306616837	723.637770892077	96.240540730654	579.828544016033	634.190452631578	36.351253968075	618.544365062631	842.640978905377	40.447896839887	608.878013305548	875.842273384897	41.199119967995	401.065979845473	949.476539731903	43.430204903437	320.741153503813	1021.732022886652	118.856101444988	339.596597323540	1154.153918361441	86.345089768746	314.696264480824	628.852389343856	1109.631619794328	243.315255650742	605.442576022326	849.822220215210	245.402673963253	932.874817330614	1103.861740088054	785.586785688842	1170.665643754524	1151.245143361785	716.599475349969	
